<svg width="720" height="405" viewBox="0 0 720 405" fill="none" xmlns="http://www.w3.org/2000/svg">
<g clip-path="url(#clip0_257_87)">
<g filter="url(#filter0_i_257_87)">
<path d="M717.519 305.032C714.665 303.557 691.65 302.913 621.149 302.51C582.607 302.217 545.418 301.64 538.441 301.235C514.65 299.714 494.357 296.751 474.917 292.042C456.49 287.558 410.044 274.081 404.376 271.568C400.056 269.645 393.891 265.815 388.742 261.699C382.303 256.625 375.744 252.72 367.834 249.245C356.498 244.364 355.037 244.283 364.064 249.004C369.673 251.956 378.082 256.893 388.898 263.524C394.167 266.766 395.789 268.307 393.875 268.295C391.848 268.285 378.442 262.004 361.507 253.15C336.215 239.868 327.459 236.533 301.727 230.256C247.177 216.953 196.503 213.159 83.5091 214.046C51.9414 214.231 20.7123 214.199 14.1872 213.869C3.33056 213.369 2.20476 213.437 1.86008 214.528C1.11304 216.933 2.72496 220.008 5.75156 221.849C11.1315 225.238 14.2238 225.62 37.0133 225.531C52.7126 225.475 72.4017 226.245 113.802 228.379C144.458 229.942 183.047 231.693 199.587 232.154C268.728 234.227 291.616 236.474 319.418 244.151C333.628 248.099 343.002 251.875 367.684 263.767C403.584 281.124 414.305 285.126 445.655 292.605C481.555 301.202 498.81 304.074 529.687 306.367C537.617 306.924 571.712 307.557 625.052 308.008C670.684 308.413 710.126 308.859 712.657 308.946C715.753 309.036 717.5 308.828 718.122 308.174C719.421 306.795 719.259 305.991 717.519 305.032Z" fill="#B2CC03" fill-opacity="0.41"/>
<path d="M718.488 242.344C718.171 239.422 715.081 238.676 700.625 237.936C657.818 235.575 573.026 217.429 532.612 201.943C512.744 194.313 487.176 180.299 471.497 168.386C466.961 164.93 461.71 158.988 461.722 157.237C461.73 156.142 478.929 141.424 491.144 132.08C501.04 124.473 520.93 111.668 530.981 106.324C553.113 94.7007 576.401 87.1702 617.758 78.3567C648.298 71.8894 657.648 70.4833 675.546 69.8555C704.193 68.9248 714.559 67.0136 718.304 62.2176C718.983 61.3461 719.499 60.1812 719.507 59.4511C719.513 58.3562 717.825 58.2737 698.015 58.5987C675.617 58.9815 663.063 59.6397 646.341 61.4412C572.41 69.1935 506.088 92.1691 445.575 131.016C430.883 140.493 408.89 156.424 408.827 157.664C408.821 158.394 426.921 169.956 436.062 174.971C479.346 199.011 531.787 216.536 598.496 229.324C619.57 233.313 635.926 236.034 669.093 240.967C714.516 247.794 717.83 248.251 718.339 247.818C718.85 247.455 718.863 245.922 718.488 242.344Z" fill="#B2CC03" fill-opacity="0.41"/>
<path d="M717.245 364.731C716.071 364.141 603.19 364.884 574.601 365.669C562.05 366.035 535.206 366.539 514.949 366.787C494.689 367.109 474.936 367.653 471.05 367.997C438.394 371.167 418.269 376.818 396.358 389.099C358.126 410.412 327.275 421.476 284.969 428.897C261.591 432.995 242 434.563 210.093 434.891C177.286 435.215 153.212 433.909 115.314 429.751C105.361 428.673 100.189 427.913 69.4977 422.994C39.7631 418.153 21.567 412.72 6.71063 404.244C3.51475 402.474 0.766633 401.072 0.652689 401.289C0.539211 401.434 0.584152 403.187 0.74021 405.158C1.21405 410.196 4.17259 413.862 10.4537 417.11C30.7549 427.663 77.3029 434.204 151.56 436.966C214.509 439.296 294.707 437.053 316.514 432.434C327.895 430.017 342.675 424.336 375.404 409.854C403.169 397.533 417.099 392.356 430.681 389.296C433.497 388.729 437.386 387.728 439.415 387.157C448.548 384.509 478.397 380.519 499.394 379.105C518.31 377.828 545.435 377.178 573.681 377.34C598.551 377.483 623.142 377.113 676.663 375.886C686.567 375.651 697.482 375.713 700.857 375.952C709.01 376.727 713.682 376.17 715.952 374.212C717.535 372.835 717.76 372.18 717.951 368.897C718.086 366.051 717.922 365.102 717.245 364.731Z" fill="#B2CC03" fill-opacity="0.41"/>
<path d="M719.126 -12.0757C717.118 -15.8094 710.885 -16.6479 694.949 -15.3522C690.332 -15.0137 678.794 -14.4228 669.338 -14.0389C638.325 -12.7564 597.446 -8.53801 559.258 -2.62559C531.264 1.73947 500.713 9.95811 468.789 21.7452C456.549 26.2731 435.279 35.1289 401.93 49.6811C344.487 74.6781 284.811 88.0584 202.447 94.5212C178.522 96.4282 161.41 97.3518 116.045 99.2092C103.212 99.7926 85.9891 100.497 77.772 100.815C69.5543 101.133 53.5167 101.333 42.0391 101.122C20.2648 100.851 16.2676 101.193 8.9903 104.071C4.25159 105.942 1.75744 108.774 1.7348 112.277L1.71875 114.758L6.3293 115.296C16.6758 116.377 84.4186 117.129 104.68 116.368C174.47 113.848 232.529 106.881 299.804 92.9608C358.063 80.8864 369.513 76.8649 417.956 51.1596C455.561 31.1578 469.333 24.7405 485.967 19.2159C541.117 0.92001 631.843 -11.1148 699.016 -9.05232C721.571 -8.41251 721.127 -8.34204 719.126 -12.0757Z" fill="#B2CC03" fill-opacity="0.41"/>
<path d="M708.05 29.5351C679.289 30.6118 644.216 33.1116 621.186 35.753C581.995 40.2003 539.732 49.6657 493.554 64.1449C460.794 74.4673 443.927 81.231 396.237 103.365C340.419 129.175 317.688 137.876 292.784 142.915C270.867 147.315 253.585 148.311 194.499 148.922C167.714 149.134 132.149 149.588 115.435 149.93C64.8998 150.809 48.9201 150.718 35.3106 149.545C13.5472 147.596 3.51333 150.385 2.05146 158.916C1.87416 160.228 1.74983 162.053 1.85623 163.002L2.07044 164.682L103.126 165.113C215.043 165.607 229.161 166.052 270.603 170.596C312.044 175.065 347.222 182.346 381.306 193.414C398.6 198.988 407.299 202.614 432.655 214.509C474.449 234.163 486.014 238.022 529.341 246.738C581.49 257.325 609.993 261.429 659.649 265.801C681.525 267.678 717.181 270.145 717.47 269.78C718.036 269.053 716.304 267.219 714.056 266.185C710.133 264.191 702.374 263.491 684.536 263.389C666.08 263.283 647.411 261.352 615.539 256.353C560.452 247.717 501.869 231.473 451.808 211.115C430.652 202.456 396.646 187.883 395.133 186.853C391.269 184.13 401.095 187.471 424.274 196.653C433.927 200.504 441.955 203.541 442.068 203.397C442.352 203.106 412.953 189.655 402.738 185.51C377.317 175.074 341.648 165.308 308.655 159.792C303.541 158.96 299.044 158.059 298.651 157.911C297.08 157.172 298.774 156.16 304.075 154.657C311.515 152.51 323.638 148.565 330.126 146.048C333.059 144.897 340.955 142.023 347.611 139.579C376.94 129.018 400.758 117.55 413.538 107.916C415.121 106.685 418.455 104.66 420.826 103.359C423.254 102.132 425.911 100.177 426.762 99.0873C428.746 96.6172 439.644 90.8405 439.634 92.3006C439.634 92.4466 438.163 93.6057 436.412 94.7636C434.604 95.9939 433.246 96.9346 433.471 97.0089C433.64 97.0102 438.212 94.9198 443.686 92.3965C465.077 82.3737 483.351 75.7635 511.255 67.9683C563.905 53.234 627.723 43.0893 709.413 36.4766L719.656 35.6591L719.677 32.3751L719.697 29.0908L708.05 29.5351Z" fill="#B2CC03" fill-opacity="0.41"/>
<path d="M704.054 212.193C688.359 211.591 680.881 210.82 667.166 208.552C633.555 202.812 598.246 189.692 563.768 170.155C550.536 162.634 543.868 158.29 543.876 157.195C543.884 156.028 548.859 152.261 560.841 144.228C575.816 134.242 594.618 124.204 613.352 116.21C629.883 109.226 633.604 108.151 656.364 103.757C667.577 101.631 680.817 99.0067 685.775 98.0131C701.832 94.7478 717.054 90.5283 717.061 89.3609C717.069 88.1928 689.251 91.2455 671.167 94.3536C618.666 103.469 574.316 122.556 537.324 152.195C534.101 154.731 531.497 157.052 531.495 157.417C531.487 158.511 537.298 164.967 541.831 168.789C557.051 181.867 576.804 190.227 612.873 199.044C638.378 205.248 667.602 210.525 701.337 214.951C719.718 217.317 718.482 217.383 718.496 214.829L718.511 212.712L704.054 212.193Z" fill="#B2CC03" fill-opacity="0.41"/>
<path d="M717.74 288.248C717.578 288.026 710.933 287.99 702.945 288.163C689.551 288.379 675.994 287.718 658.395 285.864C572.306 276.76 527.161 270.59 489.739 262.567C475.746 259.642 473.893 259.119 472.103 257.503C471.375 256.917 467.785 255.362 464.079 254.028C451.223 249.501 433.996 242.178 409.087 230.505C365.78 210.259 356.742 206.778 331.464 200.064C314.556 195.588 292.41 192.032 270.757 190.229C246.068 188.19 223.227 187.695 115.648 186.642L1.82293 185.554L1.78423 191.538C1.763 194.822 1.96684 198.109 2.24392 198.766C2.68697 199.864 3.86811 199.943 15.0113 199.642C91.1589 197.158 154.457 197.812 207.945 201.547C233.873 203.376 273.627 207.688 304.378 212.025C338.502 216.744 345.974 218.685 365.33 227.627C390.518 239.303 397.42 242.188 409.381 246.051C469.914 265.593 535.103 278.227 613.945 285.61C645.942 288.566 715.181 292.757 717.104 291.82C717.944 291.386 718.355 289.054 717.74 288.248Z" fill="#B2CC03" fill-opacity="0.41"/>
<path d="M700.212 327.925C690.531 328.16 639.325 328.598 586.374 329.024L490.148 329.716L482.566 327.336C478.411 326.071 471.841 324.137 467.965 323.02C440.836 315.566 433.426 312.677 398.369 295.691C387.71 290.522 376.885 285.35 374.247 284.094C371.612 282.839 364.711 279.442 358.824 276.49C326.068 260.099 295.56 253.139 236.898 248.788C129.533 240.877 113.108 239.98 50.3219 238.452C-0.762128 237.212 1.20816 237.077 1.5756 241.166C1.68058 242.335 2.23664 243.361 3.1336 243.876C4.03057 244.392 14.8849 245.256 32.9418 246.09C165.526 252.467 241.493 260.419 307.068 274.733C331.173 280.054 337.741 282.354 379.767 300.693C410.404 314.079 421.012 318.226 432.64 321.358C440.503 323.52 450.28 325.547 452.7 325.56C454.614 325.572 457.587 326.903 457.077 327.483C456.907 327.701 453.017 328.7 448.396 329.695C421.971 335.238 395.219 347.712 363.909 368.99C328.021 393.454 305.169 403.102 270.301 408.741C246.193 412.691 193.514 414.288 160.161 412.199C122.701 409.796 105.446 406.778 71.3571 396.584C33.617 385.348 16.2025 380.87 4.67587 379.564C0.23409 379.026 0.0090307 379.026 6.07991e-05 380.413C-0.0145639 382.675 2.6111 385.608 5.80981 386.941C7.71817 387.681 13.6215 388.445 23.2951 389.157L37.9178 390.262L48.5849 393.972C78.8447 404.655 121.388 412.78 167.727 416.768C197.757 419.349 269.401 417.495 290.133 413.6C306.076 410.552 323.161 405.176 336.369 398.829C343.481 395.44 351.616 390.158 363.547 381.25C381.925 367.487 387.517 364.163 405.344 356.674C414.994 352.568 420.858 350.632 436.304 346.267C442.336 344.551 449.834 342.331 452.937 341.326C456.038 340.323 463.138 338.464 468.716 337.257C478.127 335.193 480.322 335.06 498.839 334.509C535.87 333.552 687.516 333.398 695.219 334.318C707.42 335.774 715.584 334.507 717.132 330.866C718.503 327.518 718.785 327.591 700.212 327.925Z" fill="#B2CC03" fill-opacity="0.41"/>
<path d="M715.731 225.323C712.65 223.263 707.136 222.501 688.911 221.813C665.623 220.877 643.809 217.905 616.67 211.838C593.857 206.745 567.648 196.523 549.037 185.543C534.854 177.142 512.91 159.646 512.93 156.8C512.939 155.194 520.372 145.53 525.696 140.232C540.139 125.79 560.244 114.447 587.538 105.261C604.229 99.6635 606.088 99.3094 645.011 93.1093C694.295 85.3622 712.834 81.6734 716.453 78.9204C717.697 78.0519 718.312 77.9821 702.214 79.2041C611.407 85.9107 551.851 107.101 503.689 149.813C500.408 152.714 497.745 155.326 497.743 155.691C497.737 156.786 506.344 165.666 513.227 171.617C540.869 195.713 579.933 211.119 634.348 219.238C648.963 221.439 661.727 222.825 687.203 225.014C699.576 226.108 711.384 227.195 713.518 227.427C717.57 227.888 718.361 227.089 715.731 225.323Z" fill="#B2CC03" fill-opacity="0.41"/>
<path d="M695.495 117.628C694.424 117.623 693.974 117.765 694.536 117.986C695.041 118.134 695.941 118.139 696.504 117.998C697.013 117.783 696.563 117.635 695.495 117.628Z" fill="#B2CC03" fill-opacity="0.41"/>
<path d="M689.692 118.544C676.066 119.926 654.02 126.806 636.86 135.175C623.538 141.667 603.029 154.76 603.806 156.37C604.417 157.614 628.083 170.011 628.593 169.357C628.99 168.849 621.481 163.916 614.753 160.374C611.499 158.677 608.979 156.984 609.093 156.619C609.208 156.328 611.579 155.028 614.289 153.803C616.999 152.505 626.261 146.937 634.795 141.293C643.328 135.65 652.592 130.155 655.357 128.931C662.296 125.978 672.672 122.826 683.996 120.336C689.576 119.054 691.944 118.338 689.692 118.544Z" fill="#B2CC03" fill-opacity="0.41"/>
<path d="M523.417 -29.1777C506.761 -29.0541 498.154 -29.3222 492.474 -30.0846C488.146 -30.6201 481.567 -31.1686 477.796 -31.1902C469.356 -31.2384 465.803 -30.0909 462.796 -26.167C460.923 -23.7693 460.638 -22.9679 460.618 -20.0488C460.591 -15.6698 460.133 -14.6506 455.249 -7.59907C448.092 2.7238 443.279 7.44028 433.559 13.7344C416.778 24.4402 374.586 40.3285 341.73 48.2419C304.141 57.223 227.767 68.829 178.954 72.8562C146.694 75.5915 75.8952 77.6686 37.1296 77.0819C12.8237 76.724 10.6278 76.9303 5.76864 80.0407C3.50806 81.5604 2.48393 83.3062 2.46742 85.8606L2.45703 87.4667L49.0488 87.2947C120.737 87.0476 169.036 83.8934 237.179 75.0139C315.458 64.8787 350.961 56.7609 399.978 37.9925C429.198 26.7738 449.478 14.7741 465.954 -1.04232C468.728 -3.7998 471.78 -5.82596 475.901 -7.846C493.85 -16.4286 514.826 -23.2422 535.784 -27.2825L546.488 -29.3378L523.417 -29.1777Z" fill="#B2CC03" fill-opacity="0.41"/>
<path d="M475.535 -3.46901C475.364 -3.46995 471.011 -0.283532 465.979 3.55591C460.89 7.39496 451.45 14.0556 444.894 18.3972C438.396 22.6661 433.252 26.2129 433.477 26.2143C435.448 26.2986 453.921 14.8726 462.178 8.42409C469.303 2.918 476.435 -3.46386 475.535 -3.46901Z" fill="#B2CC03" fill-opacity="0.41"/>
<path d="M444.534 -30.1395C434.583 -31.2911 426.424 -31.6297 423.834 -31.2066C421.243 -30.7106 420.619 -30.0572 413.131 -20.6851C408.649 -15.0909 403.153 -9.13755 400.663 -6.96223C389.97 1.95374 368.225 14.6017 353.728 20.1387C332.519 28.3376 298.36 37.5578 270.585 42.7269C237.741 48.7427 214.883 50.9474 138.274 55.1809C92.1165 57.7632 59.6934 59.6214 46.1832 60.4929C40.216 60.8966 32.0002 60.9957 27.8947 60.6808C19.0644 60.0461 8.98514 61.1561 6.04748 62.9642C4.18268 64.1944 2.59305 66.3749 3.15148 67.0344C3.43093 67.3283 25.044 66.4302 102.773 63.006C164.406 60.2198 214.456 56.1268 256.751 50.3837C272.07 48.282 310.995 41.3518 316.127 39.7756C318.099 39.203 325.09 37.1996 331.74 35.4857C356.711 28.7679 386.544 18.5016 400.486 11.7938C417.023 3.85996 432.125 -8.24211 444.772 -23.6426C446.985 -26.4033 448.858 -28.874 448.86 -29.166C448.862 -29.458 446.895 -29.9071 444.534 -30.1395Z" fill="#B2CC03" fill-opacity="0.41"/>
<path d="M383.633 320.714C382.183 318.808 379.553 316.311 377.704 315.061C373.222 312.187 357.188 303.119 350.513 299.87C326.056 287.833 294.992 279.627 254.176 274.432C242.256 272.976 188.838 267.342 176.015 266.32C159.875 264.916 98.0968 264.126 71.4762 264.922C54.367 265.479 5.12039 267.242 2.02382 267.516C1.9113 267.516 1.84559 268.976 1.8338 270.8C1.81398 273.865 1.9251 274.085 3.10905 273.726C19.5701 269.003 38.3693 268.162 74.421 270.777C87.2446 271.653 106.874 273.005 118.011 273.653C201.256 278.653 232.014 281.822 263.649 288.717C284.721 293.289 306.509 300.13 323.734 307.673C340.679 315.067 358.229 324.729 358.217 326.627C358.214 327.138 355.439 329.896 352.101 332.723C312.834 366.216 270.064 384.511 219.727 389.55C207.509 390.721 181.231 390.79 167.903 389.62C148.051 387.826 125.623 384.195 95.111 377.817C70.5545 372.64 59.7672 370.17 53.4212 368.238C41.7971 364.594 38.538 363.918 32.4626 363.665C29.087 363.572 21.2159 362.579 15.0336 361.449C3.06195 359.337 0.137498 359.102 0.130889 360.122C0.120513 361.729 2.80054 364.955 5.49144 366.504C9.5838 368.862 15.6512 370.357 27.9064 372.106C43.7042 374.239 46.3451 374.839 53.4729 377.653C76.7649 386.835 110.434 392.428 165.609 396.319C184.788 397.598 239.028 397.98 250.008 396.804C282.328 393.411 302.282 388.196 328.244 376.23C344.892 368.515 351.217 364.976 351.229 363.223C351.231 362.787 352.931 360.973 355.081 359.233C361.927 353.505 367.814 347.991 373.028 342.256C375.861 339.133 378.692 336.378 379.369 336.017C380.046 335.728 381.637 333.475 382.891 331.072C384.2 328.673 385.452 326.49 385.791 326.272C386.81 325.475 386.311 324.16 383.633 320.714Z" fill="#B2CC03" fill-opacity="0.41"/>
<path d="M373.023 -31.3511C370.327 -31.8774 365.985 -30.5154 362.647 -28.053C361.291 -26.9659 357.099 -22.465 353.356 -18.0343C345.586 -8.66364 343.831 -6.99508 336.937 -2.43642C329.93 2.12155 321.971 5.94422 309.111 10.8337C287.789 18.9591 274.371 22.7506 256.345 25.8588C241.924 28.3309 231.957 29.3688 194.408 32.2928C179.828 33.377 136.164 33.1274 111.977 31.821C101.628 31.2509 83.5147 30.4182 71.757 29.9858C45.261 28.9586 34.7486 27.4387 21.4434 22.6917C15.1557 20.4664 7.70147 15.8986 5.80543 13.2604C5.0243 12.2342 4.74863 11.3567 5.08623 11.3587C5.42382 11.3606 5.87208 11.6551 6.03806 12.094C6.20452 12.4598 6.65223 12.8273 7.04615 12.8296C7.38375 12.8315 6.82859 11.6606 5.76851 10.2678C4.7084 8.87508 3.70314 7.7016 3.47808 7.70025C3.25302 7.699 3.10085 13.8288 3.05225 21.346L3.07606 35.0674L5.88607 35.5943C19.3183 38.0794 49.1245 40.585 78.6021 41.7753C108.022 42.9655 138.524 42.41 192.053 39.7966C252.898 36.7871 264.442 35.5391 292.899 28.9872C309.017 25.2841 316.514 23.1374 324.299 20.0436C333.043 16.5172 336.489 14.5664 335.199 13.9751C334.413 13.6057 335.716 12.4454 340.18 9.40557C354.76 -0.437005 365.47 -12.0533 372.819 -25.8784C374.128 -28.2794 375.155 -30.3901 375.155 -30.5361C375.157 -30.7549 374.202 -31.0523 373.023 -31.3511Z" fill="#B2CC03" fill-opacity="0.41"/>
<path d="M331.27 -31.0788C330.2 -30.8658 324.632 -31.1167 318.895 -31.5144C306.579 -32.5337 304.832 -32.2517 290.17 -27.2264C255.488 -15.3823 221.224 -7.25792 189.857 -3.35004C170.823 -0.977301 162.999 -0.511172 138.354 -0.651969C110.783 -0.80959 107.69 -1.11918 87.6318 -5.75884C64.5959 -10.9994 51.8505 -15.3053 40.8619 -21.4988C24.4348 -30.7158 18.7646 -32.7188 10.2655 -32.3294C6.32537 -32.1329 5.31023 -31.7738 4.28941 -30.5389C2.53052 -28.2866 3.24217 -25.217 6.64282 -20.3077C11.6606 -13.1265 16.5889 -9.52216 28.9322 -3.97779C46.9424 4.08044 63.9113 7.82669 90.4578 9.73C103.281 10.6061 117.181 10.4666 148.137 9.25682C156.354 8.86584 173.181 8.52414 185.561 8.37591C244.254 7.76257 271.399 4.04953 297.747 -7.03947C311.063 -12.6561 326.661 -23.0038 331.824 -29.6159L333.243 -31.4324L331.27 -31.0788ZM324.485 -26.0085C321.936 -23.2497 315.548 -18.6153 315.045 -19.202C314.933 -19.4217 317.481 -21.8885 320.764 -24.7162C326.874 -30.0092 328.623 -30.5829 324.485 -26.0085Z" fill="#B2CC03" fill-opacity="0.41"/>
<path d="M311.983 323.807C302.856 316.895 294.555 312.907 278.439 307.705C249.014 298.196 231.087 294.88 193.012 292.036C148.581 288.643 99.7438 287.999 57.6958 290.314C43.4547 291.108 25.0493 291.951 16.7762 292.196L1.6939 292.549L1.67078 296.124L1.64812 299.627L18.9783 299.727C28.4875 299.781 40.5823 300.215 45.8129 300.61C62.8532 302.02 79.4975 303.794 81.0688 304.46C81.8542 304.757 83.4855 304.84 84.7261 304.481C88.2766 303.553 101.109 303.115 99.8653 303.983C99.2999 304.419 95.5267 304.907 91.5301 305.104C83.1435 305.495 82.9109 306.66 91.1825 306.708C97.0902 306.741 101.542 305.746 110.059 302.51C113.838 301.144 119.305 299.862 126.851 298.811C136.764 297.334 140.705 297.139 160.06 297.249C177.559 297.349 183.859 297.677 191.28 298.741C217.196 302.612 241.453 310.34 259.674 320.517C268.31 325.309 270.718 326.929 270.71 328.096C270.703 329.41 257.987 337.949 247.258 343.801C227.043 354.851 207.305 361.306 186.979 363.526C177.238 364.566 154.51 363.852 146.135 362.197C129.838 358.967 124.674 357.187 107.117 348.62C93.5426 341.972 85.013 338.349 77.0957 335.822C64.517 331.88 63.3926 331.728 33.6832 331.631C8.70084 331.489 5.88652 331.62 4.58531 332.706C2.09588 334.81 1.23584 337.286 1.14654 342.395L1.06055 346.99L17.9387 347.38C38.9234 347.937 48.6471 349.598 83.3632 358.554C121.787 368.481 129.488 369.767 154.918 370.349C216.129 371.794 261.885 361.692 297.427 338.686C305.564 333.404 314.327 326.887 314.331 326.156C314.333 325.865 313.271 324.837 311.983 323.807Z" fill="#B2CC03" fill-opacity="0.41"/>
<path d="M222.5 326.143C220.259 324.742 217.679 323.487 216.722 323.263C215.769 322.966 216.663 323.772 218.682 324.953C223.278 327.753 223.895 328.195 224.112 329.144C224.223 329.583 222.355 331.251 219.925 332.916C214.893 336.389 216.301 336.179 222.458 332.565C224.662 331.263 226.528 329.815 226.53 329.377C226.534 328.939 224.687 327.468 222.5 326.143Z" fill="#B2CC03" fill-opacity="0.41"/>
<path d="M58.0883 316.517C55.3355 315.844 51.1217 314.872 48.8175 314.421C42.9722 313.366 5.78465 312.423 3.24651 313.358L1.27246 314.076L3.79502 315.551C8.39142 318.278 14.5203 318.968 35.565 318.943C46.4251 318.932 57.0613 318.702 59.2018 318.349L63.1444 317.788L58.0883 316.517Z" fill="#B2CC03" fill-opacity="0.41"/>
</g>
</g>
<defs>
<filter id="filter0_i_257_87" x="0" y="-32.3746" width="720.001" height="474.271" filterUnits="userSpaceOnUse" color-interpolation-filters="sRGB">
<feFlood flood-opacity="0" result="BackgroundImageFix"/>
<feBlend mode="normal" in="SourceGraphic" in2="BackgroundImageFix" result="shape"/>
<feColorMatrix in="SourceAlpha" type="matrix" values="0 0 0 0 0 0 0 0 0 0 0 0 0 0 0 0 0 0 127 0" result="hardAlpha"/>
<feOffset dy="4"/>
<feGaussianBlur stdDeviation="2"/>
<feComposite in2="hardAlpha" operator="arithmetic" k2="-1" k3="1"/>
<feColorMatrix type="matrix" values="0 0 0 0 0 0 0 0 0 0 0 0 0 0 0 0 0 0 0.25 0"/>
<feBlend mode="normal" in2="shape" result="effect1_innerShadow_257_87"/>
</filter>
<clipPath id="clip0_257_87">
<rect width="720" height="405" fill="white"/>
</clipPath>
</defs>
</svg>
