<svg width="549" height="109" viewBox="0 0 549 109" fill="none" xmlns="http://www.w3.org/2000/svg">
<g opacity="0.3" clip-path="url(#clip0_197_71)">
<g filter="url(#filter0_d_197_71)">
<path d="M1.5884 23.4411C3.77766 23.8111 21.3347 23.9406 75.1219 23.9406C104.527 23.9592 132.901 24.0517 138.224 24.1442C156.382 24.4957 171.879 25.2174 186.731 26.3831C200.811 27.4932 236.312 30.8423 240.647 31.4714C243.953 31.9525 248.675 32.9146 252.624 33.9508C257.561 35.2275 262.583 36.2082 268.636 37.0778C277.307 38.299 278.423 38.3175 271.512 37.1333C267.219 36.3932 260.78 35.1535 252.495 33.4882C248.46 32.6741 247.215 32.2855 248.675 32.2855C250.22 32.2855 260.48 33.8583 273.443 36.0787C292.803 39.4092 299.5 40.2419 319.16 41.7961C360.842 45.0897 399.519 45.9778 485.716 45.5892C509.798 45.4967 533.622 45.4597 538.602 45.5337C546.887 45.6448 547.745 45.6263 548.003 45.3487C548.561 44.7381 547.316 43.961 544.998 43.4984C540.877 42.6473 538.516 42.5547 521.131 42.6102C509.154 42.6473 494.13 42.4807 462.536 41.9996C439.141 41.6481 409.693 41.2595 397.072 41.167C344.315 40.7414 326.844 40.2049 305.596 38.299C294.735 37.3184 287.566 36.3747 268.679 33.3957C241.205 29.0475 233.006 28.0483 209.053 26.198C181.623 24.0702 168.445 23.3671 144.878 22.8305C138.825 22.7009 112.812 22.5899 72.117 22.5529C37.3034 22.5159 7.2118 22.4604 5.2801 22.4419C2.91913 22.4234 1.5884 22.4789 1.1162 22.6454C0.128887 22.997 0.257667 23.2005 1.5884 23.4411Z" fill="#B2CC03" fill-opacity="0.41"/>
<path d="M1.15907 39.3352C1.41663 40.0753 3.7776 40.2604 14.8098 40.4269C47.477 40.9635 112.253 45.4412 143.161 49.3084C158.357 51.2142 177.931 54.7298 189.951 57.7273C193.428 58.5969 197.463 60.0957 197.463 60.5397C197.463 60.8173 184.413 64.5734 175.141 66.9603C167.629 68.9031 152.519 72.1782 144.878 73.5474C128.051 76.5264 110.322 78.4692 78.8136 80.7636C55.5473 82.4474 48.4214 82.8174 34.7707 83.0025C12.921 83.28 5.02248 83.7796 2.18931 85.0008C1.67419 85.2228 1.28785 85.5189 1.28785 85.7039C1.28785 85.9815 2.57565 86 17.6859 85.889C34.7707 85.7594 44.3434 85.5744 57.0926 85.0933C113.455 83.021 163.937 77.1 209.912 67.1638C221.073 64.7399 237.771 60.6693 237.814 60.3547C237.814 60.1697 223.949 57.2647 216.952 56.0065C183.812 49.9745 143.719 45.6077 92.7647 42.4622C76.6672 41.4816 64.1755 40.8155 38.8488 39.6128C4.16394 37.9475 1.63127 37.8365 1.24492 37.9475C0.858584 38.04 0.858584 38.4286 1.15907 39.3352Z" fill="#B2CC03" fill-opacity="0.41"/>
<path d="M1.50264 8.30555C2.4041 8.45357 88.5151 8.10201 110.322 7.86147C119.895 7.75046 140.371 7.58393 155.824 7.49141C171.278 7.38039 186.345 7.21387 189.307 7.12135C214.205 6.27021 229.529 4.80847 246.185 1.66294C275.246 -3.79547 298.727 -6.64494 330.965 -8.58776C348.78 -9.66094 363.718 -10.0865 388.058 -10.216C413.084 -10.3456 431.457 -10.0495 460.389 -9.05034C467.987 -8.7913 471.937 -8.60627 495.375 -7.40357C518.083 -6.21937 531.991 -4.86864 543.367 -2.74079C545.814 -2.29672 547.917 -1.94516 548.003 -2.00067C548.089 -2.03767 548.046 -2.48175 547.917 -2.98133C547.531 -4.25804 545.256 -5.1832 540.448 -5.99733C524.908 -8.64327 489.365 -10.2345 432.702 -10.8266C384.667 -11.3262 323.496 -10.6416 306.883 -9.43891C298.212 -8.8098 286.965 -7.34806 262.068 -3.62894C240.948 -0.464912 230.345 0.86731 220 1.66294C217.853 1.81097 214.891 2.07001 213.346 2.21803C206.392 2.90265 183.641 3.95732 167.629 4.34589C153.206 4.69745 132.515 4.90098 110.966 4.90098C91.9922 4.90098 73.2332 5.0305 32.4099 5.41907C24.8548 5.49308 16.527 5.49308 13.9514 5.43757C7.72701 5.25254 4.16409 5.40056 2.44702 5.90015C1.24508 6.25171 1.07337 6.41823 0.944589 7.25087C0.858735 7.97249 0.987515 8.21303 1.50264 8.30555Z" fill="#B2CC03" fill-opacity="0.41"/>
<path d="M1.93177 103.837C3.47714 104.781 8.242 104.984 20.3903 104.633C23.9103 104.54 32.7102 104.374 39.9219 104.263C63.5746 103.892 94.7394 102.764 123.844 101.209C145.178 100.062 168.445 97.9344 192.741 94.8999C202.056 93.7343 218.24 91.4584 243.609 87.7208C287.309 81.3002 332.768 77.8216 395.57 76.0638C413.814 75.5457 426.864 75.2867 461.462 74.7501C471.25 74.5836 484.385 74.38 490.653 74.2875C496.92 74.195 509.154 74.121 517.911 74.158C534.524 74.195 537.572 74.1025 543.109 73.3624C546.715 72.8813 548.604 72.1597 548.604 71.2715V70.6424L545.084 70.5129C537.185 70.2538 485.501 70.1613 470.048 70.3834C416.819 71.1235 372.561 72.9738 321.307 76.6004C276.92 79.7459 268.206 80.7821 231.375 87.3692C202.786 92.4945 192.312 94.1413 179.648 95.5661C137.666 100.284 68.5111 103.467 17.2566 103.041C0.0429982 102.912 0.386412 102.893 1.93177 103.837Z" fill="#B2CC03" fill-opacity="0.41"/>
<path d="M10.1737 93.2717C32.1093 92.9571 58.8527 92.2725 76.4097 91.5694C106.287 90.3852 138.482 87.9243 173.639 84.1867C198.579 81.5222 211.414 79.7829 247.687 74.1025C290.142 67.4784 307.441 65.2395 326.415 63.9258C343.113 62.7786 356.292 62.5011 401.365 62.2605C421.798 62.168 448.928 62.0015 461.677 61.8905C500.225 61.5944 512.417 61.5944 522.805 61.872C539.417 62.3345 547.058 61.6129 548.132 59.4481C548.26 59.115 548.346 58.6524 548.26 58.4119L548.089 57.9863L470.992 58.0233C385.611 58.0603 374.836 57.9678 343.199 56.8761C311.562 55.803 284.69 54.0082 258.634 51.2512C245.412 49.8635 238.759 48.9568 219.356 45.9778C187.375 41.056 178.532 40.0938 145.436 37.9475C105.6 35.3386 83.836 34.3394 45.9317 33.3032C29.2332 32.8591 2.01766 32.2856 1.80303 32.3781C1.37376 32.5631 2.70449 33.0257 4.42156 33.2847C7.42643 33.7843 13.3503 33.9508 26.9581 33.9508C41.0381 33.9508 55.2897 34.4134 79.6292 35.6346C121.697 37.744 166.47 41.7776 204.761 46.866C220.944 49.0308 246.958 52.6759 248.117 52.935C251.079 53.6196 243.566 52.787 225.838 50.4926C218.454 49.5304 212.316 48.7718 212.23 48.8088C212.015 48.8828 234.509 52.2504 242.322 53.2865C261.767 55.8955 289.026 58.3194 314.224 59.6701C318.13 59.8736 321.564 60.0957 321.865 60.1327C323.067 60.3177 321.779 60.5768 317.744 60.9653C312.077 61.5204 302.848 62.5381 297.912 63.1857C295.679 63.4817 289.67 64.2219 284.604 64.851C262.282 67.5709 244.167 70.5129 234.466 72.9738C233.264 73.2884 230.731 73.8065 228.928 74.1395C227.083 74.4541 225.065 74.9536 224.421 75.2312C222.919 75.8603 214.634 77.3405 214.634 76.9705C214.634 76.9335 215.75 76.6374 217.081 76.3414C218.454 76.0268 219.484 75.7863 219.313 75.7678C219.184 75.7678 215.707 76.3044 211.543 76.952C195.274 79.5239 181.366 81.2262 160.117 83.243C120.023 87.0547 71.3873 89.7191 9.10057 91.5139L1.28791 91.7359V92.5686V93.4012L10.1737 93.2717Z" fill="#B2CC03" fill-opacity="0.41"/>
<path d="M12.32 46.9585C24.2966 47.088 30.0058 47.273 40.48 47.8281C66.1501 49.2344 93.1511 52.5094 119.551 57.4127C129.682 59.3 134.79 60.3917 134.79 60.6693C134.79 60.9653 131.012 61.9275 121.912 63.9813C110.536 66.5347 96.2418 69.1067 81.9901 71.1605C69.4126 72.9553 66.5794 73.2329 49.237 74.38C40.6946 74.9351 30.6068 75.6197 26.8293 75.8788C14.5951 76.7299 3.00491 77.8216 3.00491 78.1177C3.00491 78.4137 24.2107 77.5996 37.9902 76.7854C77.9979 74.3985 111.738 69.4952 139.812 61.9275C142.259 61.2799 144.234 60.6878 144.234 60.5953C144.234 60.3177 139.77 58.6894 136.292 57.7273C124.616 54.4337 109.506 52.3429 81.9472 50.1595C62.4584 48.6238 40.1365 47.3285 14.3805 46.2554C0.343455 45.6818 1.28784 45.6633 1.28784 46.3109V46.8475L12.32 46.9585Z" fill="#B2CC03" fill-opacity="0.41"/>
<path d="M1.50267 27.6968C1.63145 27.7523 6.6968 27.7523 12.7924 27.6968C23.009 27.6228 33.3543 27.7708 46.7904 28.2149C112.511 30.3982 146.981 31.897 175.571 33.8768C186.259 34.5984 187.676 34.7279 189.05 35.135C189.608 35.283 192.355 35.6716 195.188 36.0046C205.018 37.1333 218.197 38.9651 237.256 41.8886C270.396 46.9585 277.307 47.8281 296.624 49.4934C309.545 50.6036 326.458 51.4732 342.985 51.8988C361.83 52.3799 379.258 52.4724 461.334 52.5834L548.175 52.6944V51.1772C548.175 50.3445 548.003 49.5119 547.788 49.3454C547.445 49.0678 546.543 49.0493 538.044 49.1418C479.964 49.882 431.671 49.8079 390.848 48.9383C371.059 48.5127 340.71 47.4766 317.229 46.4219C291.172 45.2747 285.463 44.7936 270.653 42.5547C251.379 39.6313 246.099 38.9096 236.956 37.9475C190.681 33.0812 140.886 29.9726 80.7025 28.2149C56.2772 27.5117 3.43437 26.5496 1.97486 26.7901C1.33096 26.9011 1.03048 27.4932 1.50267 27.6968Z" fill="#B2CC03" fill-opacity="0.41"/>
<path d="M14.681 17.6126C22.0644 17.5386 61.1277 17.3536 101.522 17.1685L174.927 16.854L180.722 17.4461C183.898 17.7606 188.921 18.2417 191.883 18.5193C212.616 20.3696 218.283 21.0912 245.112 25.3469C253.268 26.6421 261.553 27.9373 263.57 28.2519C265.588 28.5664 270.868 29.4176 275.375 30.1577C300.444 34.2654 323.754 35.9862 368.526 37.0038C450.473 38.8542 463.008 39.0577 510.914 39.3537C549.892 39.5943 548.389 39.6313 548.089 38.5951C548.003 38.2991 547.574 38.04 546.887 37.9105C546.2 37.781 537.915 37.5774 524.136 37.3924C422.957 35.9677 364.963 34.0619 314.868 30.5278C296.452 29.214 291.43 28.6405 259.278 24.0517C235.84 20.7026 227.726 19.6665 218.841 18.8893C212.831 18.3527 205.362 17.8532 203.516 17.8532C202.056 17.8532 199.781 17.5201 200.167 17.3721C200.296 17.3166 203.258 17.0575 206.778 16.7985C226.911 15.3552 247.258 12.1542 271.039 6.71431C298.298 0.46027 315.683 -2.01914 342.255 -3.49939C360.628 -4.53556 400.807 -5.01664 426.263 -4.53556C454.852 -3.98047 468.03 -3.24035 494.087 -0.705424C522.934 2.08854 536.241 3.19873 545.041 3.51328C548.432 3.6428 548.604 3.6428 548.604 3.29124C548.604 2.71765 546.586 1.97752 544.139 1.64447C542.68 1.45944 538.173 1.27441 530.789 1.10788L519.628 0.848835L511.472 -0.0763191C488.335 -2.74076 455.839 -4.73909 420.467 -5.68275C397.545 -6.29335 342.899 -5.71976 327.102 -4.70209C314.954 -3.90646 301.947 -2.51873 291.902 -0.890454C286.493 -0.0208099 280.312 1.32991 271.254 3.60579C257.303 7.12138 253.053 7.97252 239.488 9.89684C232.148 10.9515 227.683 11.4511 215.922 12.5798C211.328 13.0239 205.619 13.5975 203.258 13.8565C200.897 14.1155 195.488 14.5966 191.239 14.9112C184.07 15.4478 182.396 15.4848 168.273 15.6513C140.027 15.9473 24.3395 16.2064 18.4586 15.9844C9.14347 15.6328 2.91909 15.9658 1.76007 16.891C0.729826 17.7421 0.515192 17.7236 14.681 17.6126Z" fill="#B2CC03" fill-opacity="0.41"/>
<path d="M3.3484 43.6464C5.70937 44.1645 9.91619 44.3496 23.8245 44.4976C41.5961 44.7011 58.2517 45.4227 78.9853 46.9215C96.4136 48.1797 116.46 50.7331 130.712 53.4901C141.572 55.5994 158.4 60.0032 158.4 60.7248C158.4 61.1319 152.776 63.5928 148.741 64.9435C137.795 68.6256 122.513 71.5306 101.736 73.899C89.0302 75.3422 87.6136 75.4347 57.9512 77.063C20.3903 79.0983 6.26742 80.0605 3.52011 80.7636C2.57572 80.9857 2.10353 81.0042 14.3806 80.6711C83.6214 78.8393 128.952 73.3809 165.483 62.4826C167.972 61.7425 169.99 61.0763 169.99 60.9838C169.99 60.7063 163.379 58.4674 158.099 56.9687C136.893 50.8997 107.016 47.051 65.4634 45.0712C54.3024 44.5346 44.5581 44.2015 25.1123 43.6834C15.6684 43.4244 6.65376 43.1654 5.02254 43.1099C1.93182 42.9988 1.33084 43.2024 3.3484 43.6464Z" fill="#B2CC03" fill-opacity="0.41"/>
<path d="M19.3173 70.92C20.1329 70.92 20.4763 70.883 20.047 70.8275C19.6607 70.7905 18.9739 70.7905 18.5446 70.8275C18.1582 70.883 18.5017 70.92 19.3173 70.92Z" fill="#B2CC03" fill-opacity="0.41"/>
<path d="M23.7387 70.6794C34.127 70.3094 50.9113 68.5331 63.9611 66.3867C74.0918 64.7214 89.6742 61.3724 89.0732 60.9653C88.601 60.6508 70.4859 57.5422 70.0996 57.7088C69.7991 57.8383 75.5513 59.078 80.7025 59.9661C83.1922 60.3917 85.1239 60.8173 85.0381 60.9098C84.9522 60.9838 83.1493 61.3169 81.0888 61.6314C79.0284 61.9645 71.9884 63.3892 65.5064 64.8324C59.0245 66.2757 51.9845 67.6819 49.8811 67.9965C44.6011 68.7551 36.7026 69.5692 28.0743 70.2168C23.8246 70.5499 22.0216 70.7349 23.7387 70.6794Z" fill="#B2CC03" fill-opacity="0.41"/>
<path d="M151.317 107.889C164.023 107.834 170.591 107.889 174.927 108.074C178.232 108.204 183.254 108.333 186.13 108.333C192.569 108.333 195.274 108.037 197.549 107.038C198.966 106.427 199.18 106.224 199.18 105.484C199.18 104.374 199.524 104.114 203.215 102.32C208.624 99.6923 212.273 98.4896 219.656 96.8798C232.405 94.1413 264.515 90.0522 289.541 87.9983C318.173 85.6669 376.382 82.6139 413.599 81.5222C438.196 80.7821 492.198 80.153 521.775 80.2455C540.319 80.301 541.993 80.2455 545.685 79.4499C547.402 79.0613 548.175 78.6173 548.175 77.9696V77.5626L512.631 77.6736C457.943 77.8401 421.111 78.7098 369.17 81.0597C309.502 83.7426 282.458 85.852 245.155 90.6813C222.919 93.5677 207.508 96.6392 195.016 100.673C192.913 101.376 190.595 101.894 187.461 102.412C173.81 104.614 157.842 106.372 141.873 107.427L133.717 107.963L151.317 107.889Z" fill="#B2CC03" fill-opacity="0.41"/>
<path d="M187.719 101.302C187.847 101.302 191.153 100.488 194.973 99.5072C198.837 98.5266 206.005 96.8243 210.985 95.7141C215.922 94.6224 219.828 93.7158 219.656 93.7158C218.154 93.6973 204.117 96.6208 197.849 98.2675C192.441 99.6738 187.032 101.302 187.719 101.302Z" fill="#B2CC03" fill-opacity="0.41"/>
<path d="M211.5 108.019C219.098 108.296 225.323 108.37 227.297 108.259C229.272 108.13 229.744 107.963 235.41 105.576C238.802 104.152 242.965 102.634 244.854 102.079C252.967 99.8033 269.494 96.5652 280.526 95.1405C296.667 93.0312 322.68 90.6443 343.843 89.2935C368.87 87.7208 386.298 87.1287 444.721 85.9445C479.921 85.2229 504.647 84.7048 514.949 84.4642C519.499 84.3532 525.767 84.3162 528.9 84.3902C535.64 84.5382 543.324 84.2422 545.556 83.7796C546.973 83.4651 548.174 82.91 547.745 82.7434C547.531 82.6694 531.047 82.9285 471.765 83.9091C424.76 84.7048 386.598 85.815 354.36 87.3322C342.684 87.8873 313.022 89.7006 309.116 90.1077C307.613 90.2557 302.29 90.7738 297.225 91.2179C278.208 92.9571 255.5 95.6031 244.897 97.3239C232.32 99.3592 220.858 102.449 211.285 106.372C209.611 107.075 208.195 107.704 208.195 107.778C208.195 107.852 209.697 107.963 211.5 108.019Z" fill="#B2CC03" fill-opacity="0.41"/>
<path d="M256.23 18.9818C257.346 19.4629 259.363 20.092 260.78 20.4066C264.214 21.1282 276.491 23.4041 281.599 24.2182C300.315 27.2342 324.054 29.2695 355.219 30.5278C364.319 30.8793 405.1 32.23 414.887 32.4706C427.207 32.8036 474.34 32.9147 494.645 32.6741C507.695 32.5076 545.255 31.9895 547.616 31.9155C547.702 31.9155 547.745 31.5454 547.745 31.0828C547.745 30.3057 547.659 30.2502 546.758 30.3427C534.223 31.5639 519.886 31.8045 492.37 31.1939C482.582 30.9903 467.601 30.6758 459.101 30.5278C395.57 29.3806 372.089 28.6219 347.921 26.9197C331.824 25.791 315.168 24.0887 301.99 22.2014C289.026 20.3511 275.59 17.9272 275.59 17.4461C275.59 17.3165 277.693 16.6134 280.226 15.8918C310.017 7.34338 342.555 2.6436 380.932 1.29287C390.247 0.978319 410.294 0.92281 420.467 1.20036C435.621 1.62593 452.748 2.51408 476.058 4.08684C494.817 5.36355 503.058 5.97415 507.909 6.45523C516.795 7.36189 519.285 7.52841 523.921 7.58392C526.496 7.60243 532.506 7.84297 537.228 8.12051C546.372 8.6386 548.604 8.69411 548.604 8.43507C548.604 8.028 546.543 7.21386 544.483 6.8253C541.349 6.2332 536.713 5.86314 527.355 5.43756C515.293 4.91948 513.275 4.77145 507.823 4.06834C490.009 1.77395 464.296 0.404723 422.184 -0.501928C407.546 -0.797978 366.165 -0.816481 357.794 -0.501928C333.154 0.404723 317.958 1.75545 298.212 4.82696C285.549 6.80679 280.741 7.71344 280.741 8.15752C280.741 8.26854 279.453 8.73111 277.822 9.17519C272.628 10.6369 268.163 12.0432 264.214 13.5049C262.068 14.3005 259.921 15.0037 259.406 15.0962C258.891 15.1702 257.689 15.7438 256.745 16.3544C255.758 16.965 254.813 17.5201 254.556 17.5756C253.783 17.7791 254.169 18.1122 256.23 18.9818Z" fill="#B2CC03" fill-opacity="0.41"/>
<path d="M262.798 108.167C263.356 108.074 263.914 107.76 264.214 107.297C264.472 106.908 264.944 106.39 265.244 106.15C266.275 105.317 265.202 105.78 263.57 106.89C261.596 108.185 261.467 108.389 262.798 108.167Z" fill="#B2CC03" fill-opacity="0.41"/>
<path d="M266.06 108.222C268.121 108.352 271.426 108 273.959 107.371C274.989 107.093 278.166 105.946 280.999 104.818C286.88 102.431 288.21 102.005 293.447 100.839C298.77 99.6737 304.823 98.6931 314.61 97.4349C330.837 95.344 341.053 94.3634 354.79 93.5492C365.779 92.9016 373.377 92.6241 402.009 91.8284C413.127 91.5324 446.438 91.5324 464.897 91.8284C472.795 91.958 486.618 92.143 495.589 92.2355C515.808 92.4575 523.835 92.8276 534.009 94.0118C538.817 94.5669 544.526 95.7141 545.985 96.3802C546.586 96.6392 546.801 96.8613 546.543 96.8613C546.286 96.8613 545.942 96.7873 545.814 96.6762C545.685 96.5837 545.342 96.4912 545.041 96.4912C544.783 96.4912 545.213 96.7873 546.028 97.1388C546.844 97.4904 547.617 97.7864 547.788 97.7864C547.96 97.7864 548.046 96.2322 548.046 94.3264L547.96 90.8478L545.814 90.7183C535.554 90.1077 512.803 89.5156 490.309 89.2565C467.859 88.9975 444.592 89.1825 403.769 89.9226C357.365 90.7738 348.565 91.1068 326.887 92.8091C314.61 93.7713 308.901 94.3264 302.977 95.122C296.324 96.0286 293.705 96.5282 294.692 96.6762C295.293 96.7688 294.306 97.0648 290.915 97.8419C279.84 100.358 271.727 103.319 266.189 106.834C265.202 107.445 264.429 107.982 264.429 108.019C264.429 108.074 265.159 108.148 266.06 108.222Z" fill="#B2CC03" fill-opacity="0.41"/>
<path d="M297.912 108.093C298.727 108.037 302.977 108.093 307.356 108.185C316.757 108.426 318.087 108.352 329.248 107.056C355.648 104.003 381.748 101.894 405.658 100.858C420.167 100.229 426.134 100.099 444.936 100.099C465.97 100.099 468.331 100.173 483.656 101.321C501.256 102.616 511 103.689 519.414 105.243C531.991 107.556 536.327 108.056 542.809 107.945C545.813 107.889 546.586 107.797 547.359 107.482C548.69 106.908 548.132 106.131 545.513 104.892C541.65 103.078 537.872 102.172 528.428 100.784C514.649 98.7671 501.685 97.8419 481.423 97.3979C471.636 97.1943 461.033 97.2498 437.424 97.6014C431.156 97.7124 418.321 97.8234 408.877 97.879C364.105 98.1195 343.414 99.1002 323.367 101.95C313.237 103.393 301.389 106.039 297.482 107.723L296.409 108.185L297.912 108.093ZM303.063 106.797C304.995 106.094 309.845 104.91 310.232 105.058C310.317 105.114 308.386 105.743 305.896 106.464C301.26 107.815 299.929 107.963 303.063 106.797Z" fill="#B2CC03" fill-opacity="0.41"/>
<path d="M310.876 18.0937C317.873 19.833 324.226 20.8321 336.546 22.1274C359.039 24.4958 372.733 25.3099 401.794 25.976C435.707 26.7716 472.967 26.8641 505.033 26.2165C515.894 25.9945 529.931 25.754 536.241 25.68L547.745 25.5689V24.6623V23.7741H534.524C527.269 23.7741 518.04 23.6816 514.048 23.5891C501.041 23.256 488.335 22.8305 487.133 22.6639C486.532 22.5899 485.287 22.5714 484.343 22.6639C481.638 22.9045 471.851 23.034 472.795 22.812C473.225 22.701 476.101 22.5714 479.148 22.5159C485.544 22.4049 485.716 22.1089 479.406 22.1089C474.899 22.1089 471.507 22.3679 465.026 23.2005C462.149 23.5521 457.986 23.8852 452.233 24.1627C444.678 24.5513 441.673 24.6068 426.907 24.6068C413.556 24.6068 408.749 24.5328 403.082 24.2737C383.293 23.3301 364.749 21.4057 350.797 18.8523C344.187 17.6496 342.341 17.2425 342.341 16.9465C342.341 16.6134 351.999 14.4301 360.156 12.9313C375.523 10.1003 390.548 8.43507 406.044 7.84297C413.471 7.56542 430.813 7.71345 437.209 8.12051C449.658 8.91615 453.607 9.36022 467.043 11.5066C477.431 13.1719 483.956 14.0785 490.009 14.7076C499.624 15.6883 500.483 15.7253 523.148 15.7068C542.208 15.7068 544.354 15.6698 545.341 15.3922C547.23 14.8556 547.874 14.2265 547.917 12.9313L547.96 11.7656L535.082 11.6916C519.07 11.5806 511.644 11.1735 485.115 8.95315C455.753 6.49224 449.872 6.17769 430.47 6.06667C383.765 5.78912 348.909 8.41656 321.908 14.3005C315.726 15.6513 309.073 17.3166 309.073 17.5016C309.073 17.5756 309.888 17.8346 310.876 18.0937Z" fill="#B2CC03" fill-opacity="0.41"/>
<path d="M433.045 107.908C469.447 107.908 491.254 107.871 490.438 107.76C487.948 107.427 474.512 106.316 468.545 105.946C455.796 105.151 448.069 104.929 433.131 104.929C416.862 104.929 406.817 105.262 392.007 106.298C387.113 106.649 374.751 107.723 374.493 107.834C374.45 107.852 400.807 107.889 433.045 107.908Z" fill="#B2CC03" fill-opacity="0.41"/>
<path d="M379.129 17.3721C380.846 17.7236 382.821 18.0382 383.55 18.0937C384.28 18.1677 383.593 17.9642 382.048 17.6681C378.528 16.965 378.056 16.854 377.884 16.6135C377.798 16.5024 379.215 16.0769 381.061 15.6513C384.881 14.7631 383.808 14.8186 379.129 15.7438C377.455 16.0769 376.038 16.4469 376.038 16.5579C376.038 16.669 377.455 17.039 379.129 17.3721Z" fill="#B2CC03" fill-opacity="0.41"/>
<path d="M504.604 19.5739C506.707 19.7405 509.927 19.981 511.687 20.092C516.151 20.3511 544.526 20.5361 546.458 20.2956L547.96 20.1105L546.028 19.7405C542.508 19.0558 537.829 18.8893 521.775 18.9263C513.49 18.9448 505.377 19.0188 503.745 19.1114L500.741 19.2594L504.604 19.5739Z" fill="#B2CC03" fill-opacity="0.41"/>
</g>
</g>
<defs>
<filter id="filter0_d_197_71" x="-3.53149" y="-67.5945" width="556.924" height="183.928" filterUnits="userSpaceOnUse" color-interpolation-filters="sRGB">
<feFlood flood-opacity="0" result="BackgroundImageFix"/>
<feColorMatrix in="SourceAlpha" type="matrix" values="0 0 0 0 0 0 0 0 0 0 0 0 0 0 0 0 0 0 127 0" result="hardAlpha"/>
<feOffset dy="4"/>
<feGaussianBlur stdDeviation="2"/>
<feComposite in2="hardAlpha" operator="out"/>
<feColorMatrix type="matrix" values="0 0 0 0 0 0 0 0 0 0 0 0 0 0 0 0 0 0 0.25 0"/>
<feBlend mode="normal" in2="BackgroundImageFix" result="effect1_dropShadow_197_71"/>
<feBlend mode="normal" in="SourceGraphic" in2="effect1_dropShadow_197_71" result="shape"/>
</filter>
<clipPath id="clip0_197_71">
<rect width="108.703" height="549.462" fill="white" transform="translate(0 108.703) rotate(-90)"/>
</clipPath>
</defs>
</svg>
